<svg width="22" height="22" viewBox="0 0 22 22" fill="none" xmlns="http://www.w3.org/2000/svg">
<g clip-path="url(#clip0_1710_21152)">
<path d="M15.5907 7.09521H14.4392C14.1887 7.09521 13.9505 7.21553 13.8032 7.42178L9.94339 12.7745L8.19518 10.3486C8.04786 10.1448 7.81214 10.022 7.55924 10.022H6.40768C6.24808 10.022 6.15478 10.2037 6.24808 10.3338L9.30745 14.5767C9.37973 14.6776 9.475 14.7598 9.58538 14.8165C9.69577 14.8732 9.81807 14.9027 9.94216 14.9027C10.0663 14.9027 10.1886 14.8732 10.2989 14.8165C10.4093 14.7598 10.5046 14.6776 10.5769 14.5767L15.7479 7.40705C15.8436 7.27691 15.7503 7.09521 15.5907 7.09521Z" fill="#52C41A"/>
<path d="M11 0C4.92545 0 0 4.92545 0 11C0 17.0746 4.92545 22 11 22C17.0746 22 22 17.0746 22 11C22 4.92545 17.0746 0 11 0ZM11 20.1339C5.9567 20.1339 1.86607 16.0433 1.86607 11C1.86607 5.9567 5.9567 1.86607 11 1.86607C16.0433 1.86607 20.1339 5.9567 20.1339 11C20.1339 16.0433 16.0433 20.1339 11 20.1339Z" fill="#52C41A"/>
</g>
<defs>
<clipPath id="clip0_1710_21152">
<rect width="22" height="22" fill="white"/>
</clipPath>
</defs>
</svg>
